<svg width="65" height="65" viewBox="0 0 65 65" fill="none" xmlns="http://www.w3.org/2000/svg">
<path d="M28.9272 60.91C24.5843 60.3721 20.377 58.8156 16.755 56.4068C11.1302 52.6661 7.03623 47.1921 5.11038 40.8369C4.66167 39.3562 4.20636 37.1184 4.04631 35.6072C3.89863 34.2128 3.89863 30.7981 4.04631 29.4037C5.24491 18.0864 13.2511 8.42084 24.1687 5.11069C25.6491 4.66185 27.8862 4.20643 29.397 4.04634C30.7911 3.89862 34.2049 3.89862 35.5989 4.04634C42.203 4.74613 48.3337 7.75214 53.0363 12.5963C56.2712 15.9285 58.5586 19.7951 59.8856 24.174C60.7098 26.8939 61.0645 29.4002 61.0645 32.5054C61.0645 34.8393 60.9475 36.1191 60.5498 38.1384C58.5267 48.4101 50.8739 56.8541 40.8273 59.9002C39.3469 60.349 37.1097 60.8045 35.5989 60.9645C34.1364 61.1195 30.37 61.0887 28.9272 60.91ZM15.1461 51.3618C15.8356 50.8909 17.9886 49.868 20.1027 49.0069C24.0025 47.4185 25.3362 46.6803 26.1725 45.6476C26.9133 44.7327 26.9286 44.6639 26.9426 42.1828L26.9553 39.928L26.3743 39.1624C25.454 37.9498 24.7779 36.4498 24.4672 34.9311C24.3477 34.3475 24.2951 34.2668 23.9039 34.0671C22.963 33.587 22.3993 32.2841 22.3993 30.5895C22.3993 29.5425 22.4105 29.4949 22.7792 28.9713C23.1561 28.436 23.158 28.4271 23.0255 27.8177C22.0654 23.4028 22.0731 20.0814 23.0495 17.5963C24.3932 14.1759 27.6068 12.3923 32.4422 12.3832C34.9223 12.3786 36.3056 12.8103 37.3521 13.9156C37.6996 14.2826 37.9096 14.4047 38.3006 14.4668C38.5767 14.5107 39.1662 14.7214 39.6105 14.9351C41.2137 15.7062 42.3258 17.3024 42.7148 19.3905C43.133 21.6352 42.8473 24.9237 41.9679 27.9868C41.8458 28.412 41.8587 28.4627 42.2179 28.9729C42.5853 29.4946 42.5967 29.5431 42.5967 30.5895C42.5967 32.2814 42.0329 33.5871 41.0958 34.0652C40.6899 34.2723 40.6582 34.328 40.4771 35.1525C40.1306 36.7291 39.2314 38.6273 38.4438 39.445L38.0489 39.8549L38.0967 42.1238C38.144 44.3684 38.1479 44.3989 38.4641 44.9798C39.1523 46.2443 40.4461 47.1403 43.2735 48.3107C46.9703 49.8409 48.3732 50.4743 49.2971 51.0305C49.9322 51.4129 50.3207 51.5815 50.4627 51.5364C50.7467 51.4463 52.5327 49.458 53.536 48.1151C56.0952 44.6897 57.7776 40.6157 58.4612 36.1888C58.7376 34.3991 58.7366 30.6009 58.4594 28.8221C58.0147 25.9692 57.1964 23.3586 55.9774 20.9043C52.1095 13.1168 44.9218 7.90052 36.1804 6.53728C34.3947 6.25881 30.6012 6.25881 28.8156 6.53728C25.9634 6.98208 23.3536 7.80062 20.8999 9.01993C13.1144 12.8888 7.89949 20.0783 6.5366 28.8221C6.2582 30.6082 6.2582 34.4027 6.5366 36.1888C7.40982 41.791 9.77295 46.6146 13.6591 50.7269C14.1087 51.2027 14.5519 51.5917 14.6439 51.5912C14.736 51.5907 14.962 51.4876 15.1461 51.3618Z" fill="#0D5082" fill-opacity="0.996078"/>
</svg>
